<svg width="12" height="13" viewBox="0 0 12 13" fill="none" xmlns="http://www.w3.org/2000/svg">
<path d="M9.53553 9.48528C9.06381 9.95423 8.17726 10.8356 7.40998 11.5983C6.6299 12.3738 5.37022 12.3739 4.59014 11.5984C3.83742 10.8502 2.9653 9.98316 2.46447 9.48528C0.511845 7.54416 0.511845 4.39697 2.46447 2.45584C4.41709 0.514719 7.58291 0.514719 9.53553 2.45584C11.4882 4.39697 11.4882 7.54416 9.53553 9.48528Z" stroke="#6B5D54" stroke-linecap="round" stroke-linejoin="round"/>
<path d="M7.875 5.97056C7.875 7 7.03553 7.83452 6 7.83452C4.96447 7.83452 4.125 7 4.125 5.97056C4.125 4.94113 4.96447 4.1066 6 4.1066C7.03553 4.1066 7.875 4.94113 7.875 5.97056Z" stroke="#6B5D54" stroke-linecap="round" stroke-linejoin="round"/>
</svg>

