<svg width="58" height="46" viewBox="0 0 58 46" fill="none" xmlns="http://www.w3.org/2000/svg">
<mask id="mask0_448_4012" style="mask-type:luminance" maskUnits="userSpaceOnUse" x="2" y="0" width="49" height="36">
<path d="M13.0775 25.0475C13.1971 24.9454 13.3107 24.8432 13.4243 24.7531C13.8608 24.3987 15.1046 23.5817 15.6965 23.6478C16.2586 23.7139 16.7788 24.7291 16.3423 25.2998C17.1316 25.1556 17.9748 26.1048 17.4545 26.9278C18.3096 26.8136 18.788 27.4564 18.5787 28.5437C19.7746 28.3575 19.7208 29.2946 19.081 29.9554C18.7043 30.3459 18.2797 30.7484 17.9628 31.0367L17.5622 31.3611C16.2048 32.4544 11.8696 26.5373 13.0775 25.0475ZM45.2955 15.502C50.0732 21.1308 51.9568 27.0179 49.6128 31.0908C45.5108 38.2334 32.4813 35.5362 26.4239 32.7248C26.5495 32.5926 26.6571 32.4424 26.7349 32.2742L26.7528 32.2382L26.7648 32.1961C26.7827 32.1301 26.7947 32.052 26.7947 31.9558C26.8126 31.235 26.3821 29.7812 26.2386 29.2586C26.0054 28.4236 25.7542 27.5585 25.4672 26.7415C25.2579 26.1408 25.0128 25.6122 24.7078 25.1376C23.0993 23.8701 21.3353 23.6418 20.6417 22.999C20.0557 22.4584 20.0138 21.9237 19.9241 21.5332C19.7746 19.9353 20.1633 20.2297 21.2336 20.9085C22.005 21.3951 22.2143 21.4912 23.0694 21.7255C28.0205 23.0951 26.4 26.2189 28.5347 27.2221C32.7444 29.6971 43.4538 30.9346 46.4377 25.7383C47.8608 23.2573 47.3226 19.9353 45.2896 16.5052V15.496L45.2955 15.502ZM13.4123 24.0863C13.4542 24.0503 13.502 24.0203 13.5379 23.9962C14.0223 23.6538 15.0388 23.1011 15.6547 23.1072C16.2586 23.1132 16.731 23.6418 16.9283 24.1764C17.0061 24.3927 17.0479 24.621 17.036 24.8493C17.2752 24.9394 17.4964 25.0835 17.6758 25.2698C17.9987 25.6062 18.1661 26.0327 18.1482 26.4652C18.2977 26.5133 18.4472 26.5914 18.5727 26.6935C18.9913 27.0179 19.1468 27.5165 19.1587 28.0151C19.4756 28.0691 19.7627 28.2193 19.9301 28.5317C20.2709 29.1444 19.8942 29.8893 19.4577 30.3339C19.093 30.7123 18.7103 31.0848 18.3216 31.4392L18.3096 31.4512L18.1243 31.6014C18.4412 31.9498 18.794 32.2983 19.1946 32.6467C19.7746 33.3435 20.7134 33.782 21.0303 32.959C21.4728 33.6018 22.5013 33.3916 22.609 32.6767C23.3564 33.2654 24.2354 33.2174 24.4686 32.4364C24.9829 32.7788 25.5988 32.7488 25.9874 32.3944L26.0353 32.3403C26.119 32.2502 26.1907 32.1481 26.2446 32.0399C26.2505 32.0159 26.2505 31.9679 26.2505 31.9438V31.8958C26.2505 31.7756 26.2386 31.6375 26.2206 31.4993C26.1489 31.0668 26.0054 30.454 25.826 29.8112C25.7901 29.6791 25.7482 29.5409 25.7124 29.4088C25.6645 29.2285 25.6107 29.0543 25.5629 28.8741C25.3596 28.1833 25.1622 27.5525 25.0367 27.1741C25.0068 27.09 24.9769 27.0059 24.953 26.9218C24.7676 26.3931 24.5523 25.9306 24.3012 25.5101C23.6673 25.0235 22.9737 24.6871 22.2263 24.3807C21.6163 24.1284 20.7553 23.846 20.2769 23.4015C19.972 23.1192 19.7388 22.7948 19.5893 22.4043C19.5235 22.2241 19.4816 22.0619 19.4457 21.8877L19.4099 21.8697C14.4049 18.9261 6.42817 10.9184 10.0398 4.63483C11.6364 1.85948 15.3677 0.70008 20.0198 1.09055C20.3188 0.988429 20.6178 0.904327 20.9227 0.820226C13.0296 -0.999973 6.35043 0.195471 3.85096 4.54472C1.64449 8.38336 3.18723 13.8319 7.36697 19.1604C8.77815 20.9566 10.9607 23.1372 12.7067 24.651L12.7187 24.639C12.8383 24.5309 12.9579 24.4287 13.0835 24.3266C13.1851 24.2425 13.2927 24.1644 13.4004 24.0803L13.4123 24.0863Z" fill="white"/>
</mask>
<g mask="url(#mask0_448_4012)">
<path d="M50.6678 -3.31152H0.355469V35.9159H50.6678V-3.31152Z" fill="#F4F0ED"/>
</g>
<g filter="url(#filter0_d_448_4012)">
<mask id="mask1_448_4012" style="mask-type:luminance" maskUnits="userSpaceOnUse" x="11" y="1" width="35" height="26">
<path d="M37.6532 16.9199C38.6937 15.2138 40.1467 15.2078 41.6476 15.1297C42.9153 15.0636 43.4355 14.8173 43.1425 16.4032C42.9571 17.4185 41.7134 17.3223 40.8045 17.3884C39.19 17.5146 37.2825 17.5326 37.6532 16.9199ZM21.0778 15.7725C25.3233 14.9855 32.0025 14.9855 36.248 15.7725C36.7623 16.4693 36.5829 17.034 35.7039 17.4665C31.9069 18.4697 25.425 18.4697 21.6279 17.4665C20.7489 17.034 20.5636 16.4693 21.0778 15.7725ZM28.6659 1.05469C20.5038 1.05469 16.2044 2.51445 14.9966 8.01109C14.291 7.20011 13.2027 6.96583 11.7377 7.31425C10.2308 9.03833 13.3462 9.41679 14.7693 9.41078C14.7335 9.70514 14.7095 10.0115 14.6856 10.3299C13.6571 10.9066 13.0173 11.8017 13.0173 13.1593V14.9074C13.2685 15.2258 13.5196 15.5322 13.7707 15.8265C13.8963 15.9707 14.0279 16.1149 14.1594 16.2651C13.9262 14.8413 14.4464 15.0696 15.6782 15.1357C17.1791 15.2138 18.6381 15.2198 19.6726 16.9259C20.0433 17.5386 18.1358 17.5146 16.5214 17.3944C16.0789 17.3584 15.5586 17.3644 15.1161 17.2623C16.2881 18.4277 17.6096 19.527 18.967 20.4221C19.0507 20.0436 19.2361 19.7072 19.6248 19.509C20.3842 19.1245 21.1376 19.6892 21.7595 20.0737C22.3933 20.4701 22.6205 20.5783 23.3381 20.7765C24.5579 21.1129 25.6821 21.6175 26.5611 22.4585H37.127V25.9908C37.127 26.4113 37.4679 26.7597 37.8924 26.7597H42.8854C43.304 26.7597 43.6508 26.4173 43.6508 25.9908V22.4585C44.0155 22.4585 44.3145 22.1582 44.3145 21.7917V13.1593C44.3145 11.8017 43.6807 10.9066 42.6462 10.3299C42.6283 10.0115 42.5984 9.70514 42.5625 9.41078C43.9797 9.41679 47.101 9.03833 45.5942 7.31425C44.1232 6.96583 43.0409 7.20011 42.3353 8.01109C41.1274 2.52046 36.834 1.05469 28.6659 1.05469ZM41.8031 10.6182C33.0908 9.32668 24.235 9.32668 15.5287 10.6182L15.5467 10.384C15.5646 10.0896 15.5945 9.80125 15.6244 9.51291L15.7081 8.81006L15.8457 8.19732C16.1387 6.86971 16.6589 5.62621 17.6096 4.63501C20.1211 2.03988 25.3293 1.91973 28.6719 1.91973C32.0145 1.91973 37.2227 2.04588 39.7341 4.63501C40.6909 5.6202 41.2111 6.86971 41.4981 8.19732L41.6357 8.81006L41.7194 9.51291C41.7552 9.80125 41.7792 10.0956 41.7971 10.384L41.815 10.6182H41.8031Z" fill="white"/>
</mask>
<g mask="url(#mask1_448_4012)">
<path d="M47.0948 1.05469H10.2246V26.7657H47.0948V1.05469Z" fill="#A6E751"/>
</g>
</g>
<path d="M17.1111 43.145L18.4842 39.6821H20.4444V45.7271H19.0714V41.4179L17.707 44.8635H16.5153L15.1508 41.4179V45.7271H13.7691V39.6821H15.7381L17.1111 43.145ZM23.8423 42.0224L25.0168 39.6821H26.5625L24.5677 43.2573V45.7271H23.1169V43.2573L21.1135 39.6821H22.6592L23.8423 42.0224ZM32.0683 45.7789C30.3066 45.7789 29.5121 45.0362 29.5121 43.2141V42.1778C29.5121 40.3644 30.3066 39.6303 32.0683 39.6303C33.8213 39.6303 34.6158 40.3644 34.6158 41.9706H33.165C33.165 41.0811 32.8196 40.7184 32.0683 40.7184C31.317 40.7184 30.9629 41.0811 30.9629 42.031V43.3609C30.9629 44.3281 31.317 44.6908 32.0683 44.6908C32.8196 44.6908 33.165 44.3281 33.165 43.4214H34.6158C34.6158 45.0362 33.8213 45.7789 32.0683 45.7789ZM40.5922 45.7271H39.0119L38.6665 44.5353H36.7321L36.3867 45.7271H34.8064L36.9912 39.6821H38.3988L40.5922 45.7271ZM37.6993 41.1502L37.0344 43.4818H38.3643L37.6993 41.1502ZM45.9286 45.7271H44.3483L43.3034 43.7063H42.6125V45.7271H41.1617V39.6821H43.7006C45.1341 39.6821 45.7731 40.3298 45.7731 41.677C45.7731 42.6269 45.4536 43.2486 44.7455 43.5336L45.9286 45.7271ZM43.3465 40.8307H42.6125V42.5578H43.3465C44.0546 42.5578 44.3137 42.2296 44.3137 41.6683C44.3137 41.0984 44.0546 40.8307 43.3465 40.8307Z" fill="#A6E751"/>
<defs>
<filter id="filter0_d_448_4012" x="7.10217" y="1.05469" width="43.1267" height="34.1726" filterUnits="userSpaceOnUse" color-interpolation-filters="sRGB">
<feFlood flood-opacity="0" result="BackgroundImageFix"/>
<feColorMatrix in="SourceAlpha" type="matrix" values="0 0 0 0 0 0 0 0 0 0 0 0 0 0 0 0 0 0 127 0" result="hardAlpha"/>
<feOffset dy="4.23377"/>
<feGaussianBlur stdDeviation="2.11689"/>
<feComposite in2="hardAlpha" operator="out"/>
<feColorMatrix type="matrix" values="0 0 0 0 0 0 0 0 0 0 0 0 0 0 0 0 0 0 0.04 0"/>
<feBlend mode="normal" in2="BackgroundImageFix" result="effect1_dropShadow_448_4012"/>
<feBlend mode="normal" in="SourceGraphic" in2="effect1_dropShadow_448_4012" result="shape"/>
</filter>
</defs>
</svg>
